<svg xmlns="http://www.w3.org/2000/svg" viewBox="0 0 40 40"><path d="M14.7 16c-.3 0-.7-.1-.9-.4-.3-.2-.4-.6-.4-.9 0-.3.1-.7.4-.9.5-.5 1.4-.5 1.9 0 .3.2.4.6.4.9l-.1.5-.3.4-.4.3-.6.1zm10.1 8.1-.4.3-.3.4-.1.5c0 .3.1.7.4.9.2.3.6.4.9.4l.5-.1.4-.3.3-.4.1-.5c0-.3-.1-.7-.4-.9-.3-.4-.9-.5-1.4-.3zm.5-9.4c-.5-.5-1.4-.5-1.9 0l-8.7 8.7c-.5.5-.5 1.4 0 1.9.3.3.6.4.9.4.3 0 .7-.1.9-.4l8.7-8.7c.6-.5.6-1.4.1-1.9zM40 20c0 1.1-.4 2.1-1.2 2.8l-3 3c-.2.2-.4.6-.4.9v4.7a4 4 0 0 1-4 4h-4.7c-.3 0-.7.1-.9.4l-3 3c-.7.8-1.7 1.2-2.8 1.2-1.1 0-2.1-.4-2.8-1.2l-3-3c-.2-.2-.6-.4-.9-.4H8.5a4 4 0 0 1-4-4v-4.7c0-.3-.1-.7-.4-.9l-3-3A4 4 0 0 1 0 20c0-1.1.4-2.1 1.2-2.8l3-3c.2-.2.4-.6.4-.9V8.5a4 4 0 0 1 4-4h4.7c.3 0 .7-.1.9-.4l3-3A4 4 0 0 1 20 0c1.1 0 2.1.4 2.8 1.2l3 3c.2.2.6.4.9.4h4.7a4 4 0 0 1 4 4v4.7c0 .3.1.7.4.9l3 3c.8.7 1.2 1.7 1.2 2.8zm-2.7 0c0-.3-.1-.7-.4-.9l-3-3a4.2 4.2 0 0 1-1.2-2.8V8.5c0-.7-.6-1.3-1.3-1.3h-4.7c-1.1 0-2.1-.4-2.8-1.2l-3-3c-.2-.2-.6-.4-.9-.4-.3 0-.7.1-.9.4l-3 3c-.7.7-1.8 1.2-2.8 1.2H8.5c-.7 0-1.3.6-1.3 1.3v4.7c0 1-.4 2.1-1.2 2.8l-3 3c-.2.2-.4.6-.4.9s.1.7.4.9l3 3c.8.8 1.2 1.7 1.2 2.8v4.7c0 .7.6 1.3 1.3 1.3h4.7c1 0 2.1.4 2.8 1.2l3 3c.5.5 1.3.5 1.8 0l3-3c.8-.8 1.7-1.2 2.8-1.2h4.7c.7 0 1.3-.6 1.3-1.3v-4.7c0-1.1.4-2.1 1.2-2.8l3-3c.4-.1.5-.5.5-.8z"></path></svg>