<svg xmlns="http://www.w3.org/2000/svg" viewBox="0 0 40 40"><path d="m10.4 37.6.9.9-.9-.9zm.3-.3-.9-.9.9.9zm6.6 0 .9-.9-.9.9zm.4.4-.9.9.9-.9zm4.6 0-.9-.9.9.9zm.4-.4.9.9-.9-.9zm6.6 0-.9.9.9-.9zm.3.3-.9.9.9-.9zM13.3 16H16v-2.7h-2.7V16zM24 16h2.7v-2.7H24V16zm2.9 4.5a8.7 8.7 0 0 1-13.9 0l-2.1 1.6c4.5 6 13.6 6 18.1 0l-2.1-1.6zm-15.5 18 .2-.2-1.9-1.9-.2.2 1.9 1.9zm2.5-1.2h.2v-2.7h-.2v2.7zm2.5 1 .4.4 1.9-1.9-.4-.4-1.9 1.9zm6.8.4.4-.4-1.9-1.9-.4.4 1.9 1.9zm2.7-1.4h.2v-2.7h-.2v2.7zm2.5 1 .2.2 1.9-1.9-.2-.2-1.9 1.9zm3.8 1.7c2.8 0 5.1-2.3 5.1-5.1h-2.7c0 1.3-1.1 2.4-2.4 2.4V40zm-3.6-1.5a5 5 0 0 0 3.6 1.5v-2.7c-.6 0-1.3-.3-1.7-.7l-1.9 1.9zm-2.5-1.2c.9 0 1.7.3 2.3.9l1.9-1.9a5.9 5.9 0 0 0-4.2-1.7v2.7zm-2.5 1c.6-.6 1.4-.9 2.3-.9v-2.7c-1.6 0-3.1.6-4.2 1.7l1.9 1.9zM20 40c1.2 0 2.4-.5 3.2-1.3l-1.9-1.9c-.4.4-.8.6-1.3.6V40zm-3.2-1.3c.9.9 2 1.3 3.2 1.3v-2.7c-.5 0-1-.2-1.3-.6l-1.9 2zm-2.7-1.4c.9 0 1.7.3 2.3.9l1.9-1.9a5.9 5.9 0 0 0-4.2-1.7v2.7zm-2.5 1c.6-.6 1.4-.9 2.3-.9v-2.7c-1.6 0-3.1.6-4.2 1.7l1.9 1.9zM7.8 40c1.4 0 2.7-.5 3.6-1.5l-1.9-1.9c-.5.5-1.1.7-1.7.7V40zm-5.1-5.1C2.7 37.7 5 40 7.8 40v-2.7a2.4 2.4 0 0 1-2.4-2.4H2.7zM20 2.7c8.1 0 14.7 6.6 14.7 14.7h2.7A17.5 17.5 0 0 0 20 0v2.7zM5.3 17.3C5.3 9.2 11.9 2.7 20 2.7V0C10.4 0 2.7 7.8 2.7 17.3h2.6zm-2.6 0v17.6h2.7V17.3H2.7zm34.6 17.6V17.3h-2.7v17.6h2.7z"></path></svg>