<svg xmlns="http://www.w3.org/2000/svg" viewBox="0 0 50 50"><path d="m49.7 24.9-2.9-3.8-4.8-9.4c-.3-.5-.8-.9-1.4-.9h-6.7V9.2c0-.9-.7-1.6-1.6-1.6H6c-.9 0-1.6.7-1.6 1.6s.7 1.6 1.6 1.6h24.7v11c0 .9.7 1.6 1.6 1.6h12.3l2.3 3v8.1h-3a6.4 6.4 0 0 0-6.1-4.8c-3 0-5.4 2-6.1 4.8h-9.3a6.4 6.4 0 0 0-6.1-4.8c-3 0-5.4 2-6.1 4.8H6c-.9 0-1.6.7-1.6 1.6s.7 1.6 1.6 1.6h4.1a6.3 6.3 0 0 0 6.1 4.7c2.9 0 5.4-2 6.1-4.7h9.4a6.3 6.3 0 0 0 6.1 4.7c2.9 0 5.4-2 6.1-4.7h4.6c.9 0 1.6-.7 1.6-1.6V25.8l-.4-.9zM33.9 14h5.8l3.2 6.3H34V14zM16.2 39.2A3.2 3.2 0 0 1 13 36c0-1.7 1.4-3.2 3.2-3.2 1.7 0 3.2 1.4 3.2 3.2 0 1.8-1.4 3.2-3.2 3.2zM40.9 36c0 1.7-1.4 3.2-3.1 3.2-1.7 0-3.2-1.4-3.2-3.1s1.4-3.2 3.1-3.2c1.8 0 3.2 1.4 3.2 3.1zm-29.5-6.3H4.1c-.9 0-1.6-.7-1.6-1.6s.7-1.6 1.6-1.6h7.2c.9 0 1.6.7 1.6 1.6s-.6 1.6-1.5 1.6zm3.6-6.2H1.6c-.9 0-1.6-.7-1.6-1.6 0-.9.7-1.6 1.6-1.6H15c.9 0 1.6.7 1.6 1.6 0 .9-.7 1.6-1.6 1.6zM2.6 15.7c0-.9.7-1.6 1.6-1.6h13.4c.9 0 1.6.7 1.6 1.6s-.7 1.6-1.6 1.6H4.1c-.8 0-1.5-.7-1.5-1.6z"></path></svg>