<svg xmlns="http://www.w3.org/2000/svg" viewBox="0 0 50 50"><path d="M49.6 33.2 40.5 45l-10 5H.5v-3.1h29.3l8.7-4.4 6.4-8.3c-2.6-.8-5.5.1-7.2 2.2l-1.9 2.4-8.5 3.4H19a3 3 0 0 1-2.7-1.6 3.1 3.1 0 0 1 1.2-4.2l5.3-2.9.1-.1c1-.6 1.3-1.8.9-2.8a2.3 2.3 0 0 0-3-1.1l-6.9 3.2L9 37.6H.4v-3.1h7.2L12 30l1.3-.6A17.2 17.2 0 0 1 32 1.3l-1.2 2.9a14.2 14.2 0 0 0-16.1 3.9 14 14 0 0 0 1.7 19.8l3-1.4a5.4 5.4 0 0 1 6.8 2c.5.8.7 1.7.8 2.6l1-.1a14 14 0 0 0 11.3-16.3l3.1-.6a17.3 17.3 0 0 1-16.2 20.3c-.5.7-1.1 1.4-1.9 1.8L19 39.1h7.7l7.1-2.9 1.4-1.7a9.9 9.9 0 0 1 12.9-2.2l1.5.9zM38.5 12l2.9-1.1c-.4-1.1-1-2.1-1.6-3l-2.6 1.7c.5.7.9 1.5 1.3 2.4zm-.8-6.9L35 2.9l-1.7 2.6c.8.5 1.5 1.1 2.2 1.8l2.2-2.2zM25.5 21.9s-.1 0 0 0h-4.8V25h4.7c2.6 0 4.7-2 4.8-4.6 0-2.6-2-4.7-4.6-4.8h-.1c-.9 0-1.6-.7-1.6-1.5 0-.9.7-1.6 1.5-1.6h4.8V9.4H27V6.3h-3.1v3.4a4.8 4.8 0 0 0-2.9 6 4.6 4.6 0 0 0 4.4 3.1c.9 0 1.6.7 1.6 1.5s-.6 1.6-1.5 1.6z"></path></svg>