<svg xmlns="http://www.w3.org/2000/svg" viewBox="0 0 40 40"><path d="m29.5 16.5-5.7-.9-2.6-5.5a1.3 1.3 0 0 0-2.4 0l-2.6 5.5-5.7.9c-.5.1-.9.4-1.1.9-.2.5 0 1 .3 1.4l4.2 4.3-1 6.1 1.3.2-1.3-.2c-.1.5.1 1 .5 1.3.4.3 1 .3 1.4.1l5.1-2.8 5.1 2.8c.4.2 1 .2 1.4-.1.4-.3.6-.8.5-1.3l-1-6.1 4.2-4.3c.3-.4.5-.9.3-1.4 0-.5-.4-.8-.9-.9zM19.4 25 16 26.8l.7-4c.1-.4-.1-.8-.4-1.1l-1 .9 1-.9-2.9-2.9 3.9-.6-.2-1.3.2 1.3c.4-.1.8-.3 1-.8l1.7-3.6 1.7 3.6c.2.4.6.7 1 .8l.2-1.3-.2 1.3 3.9.6-2.9 2.9 1 .9-1-.9c-.3.3-.4.7-.4 1.1l.7 4-3.4-1.8c-.4-.2-.8-.2-1.2 0zM20 0C9 0 0 9 0 20s9 20 20 20 20-9 20-20S31 0 20 0zm0 37.3a17.3 17.3 0 1 1 0-34.6 17.3 17.3 0 0 1 0 34.6z"></path></svg>